HIERARCHY
ROOT Hips
{
	OFFSET 0.000000 0.000000 0.000000
	CHANNELS 6 Xposition Yposition Zposition Zrotation Yrotation Xrotation 
	JOINT LHipJoint
	{
		OFFSET 0.000000 0.000000 0.000000
		CHANNELS 3 Zrotation Yrotation Xrotation
		JOINT LeftUpLeg
		{
			OFFSET 1.363060 -1.794630 0.839290
			CHANNELS 3 Zrotation Yrotation Xrotation
			JOINT LeftLeg
			{
				OFFSET 2.448110 -6.726130 0.000000
				CHANNELS 3 Zrotation Yrotation Xrotation
				JOINT LeftFoot
				{
					OFFSET 2.562200 -7.039590 0.000000
					CHANNELS 3 Zrotation Yrotation Xrotation
					JOINT LeftToeBase
					{
						OFFSET 0.157640 -0.433110 2.322550
						CHANNELS 3 Zrotation Yrotation Xrotation
						End Site
						{
							OFFSET 0.000000 0.000000 0.000000
						}
					}
				}
			}
		}
	}
	JOINT RHipJoint
	{
		OFFSET 0.000000 0.000000 0.000000
		CHANNELS 3 Zrotation Yrotation Xrotation
		JOINT RightUpLeg
		{
			OFFSET -1.305520 -1.794630 0.839290
			CHANNELS 3 Zrotation Yrotation Xrotation
			JOINT RightLeg
			{
				OFFSET -2.542530 -6.985550 0.000000
				CHANNELS 3 Zrotation Yrotation Xrotation
				JOINT RightFoot
				{
					OFFSET -2.568260 -7.056230 0.000000
					CHANNELS 3 Zrotation Yrotation Xrotation
					JOINT RightToeBase
					{
						OFFSET -0.164730 -0.452590 2.363150
						CHANNELS 3 Zrotation Yrotation Xrotation
						End Site
						{
							OFFSET 0.000000 0.000000 0.000000
						}
					}
				}
			}
		}
	}
	JOINT LowerBack
	{
		OFFSET 0.000000 0.000000 0.000000
		CHANNELS 3 Zrotation Yrotation Xrotation
		JOINT Spine
		{
			OFFSET 0.028270 2.035590 -0.193380
			CHANNELS 3 Zrotation Yrotation Xrotation
			JOINT Spine1
			{
				OFFSET 0.056720 2.048850 -0.042750
				CHANNELS 3 Zrotation Yrotation Xrotation
				JOINT Neck
				{
					OFFSET 0.000000 0.000000 0.000000
					CHANNELS 3 Zrotation Yrotation Xrotation
					JOINT Neck1
					{
						OFFSET -0.054170 1.746240 0.172020
						CHANNELS 3 Zrotation Yrotation Xrotation
						JOINT Head
						{
							OFFSET 0.104070 1.761360 -0.123970
							CHANNELS 3 Zrotation Yrotation Xrotation
							End Site
							{
								OFFSET 0.000000 0.000000 0.000000
							}
						}
					}
				}
				JOINT LeftShoulder
				{
					OFFSET 0.000000 0.000000 0.000000
					CHANNELS 3 Zrotation Yrotation Xrotation
					JOINT LeftArm
					{
						OFFSET 3.362410 1.200890 -0.311210
						CHANNELS 3 Zrotation Yrotation Xrotation
						JOINT LeftForeArm
						{
							OFFSET 4.983000 -0.000000 -0.000000
							CHANNELS 3 Zrotation Yrotation Xrotation
							JOINT LeftHand
							{
								OFFSET 3.483560 -0.000000 -0.000000
								CHANNELS 3 Zrotation Yrotation Xrotation
								JOINT LeftFingerBase
								{
									OFFSET 0.000000 0.000000 0.000000
									CHANNELS 3 Zrotation Yrotation Xrotation
									JOINT LeftHandIndex1
									{
										OFFSET 0.715260 -0.000000 -0.000000
										CHANNELS 3 Zrotation Yrotation Xrotation
										End Site
										{
											OFFSET 0.000000 0.000000 0.000000
										}
									}
								}
								JOINT LThumb
								{
									OFFSET 0.000000 0.000000 0.000000
									CHANNELS 3 Zrotation Yrotation Xrotation
									End Site
									{
										OFFSET 0.000000 0.000000 0.000000
									}
								}
							}
						}
					}
				}
				JOINT RightShoulder
				{
					OFFSET 0.000000 0.000000 0.000000
					CHANNELS 3 Zrotation Yrotation Xrotation
					JOINT RightArm
					{
						OFFSET -3.136600 1.374050 -0.404650
						CHANNELS 3 Zrotation Yrotation Xrotation
						JOINT RightForeArm
						{
							OFFSET -5.241900 -0.000000 -0.000000
							CHANNELS 3 Zrotation Yrotation Xrotation
							JOINT RightHand
							{
								OFFSET -3.444170 -0.000000 -0.000000
								CHANNELS 3 Zrotation Yrotation Xrotation
								JOINT RightFingerBase
								{
									OFFSET 0.000000 0.000000 0.000000
									CHANNELS 3 Zrotation Yrotation Xrotation
									JOINT RightHandIndex1
									{
										OFFSET -0.622530 -0.000000 -0.000000
										CHANNELS 3 Zrotation Yrotation Xrotation
										End Site
										{
											OFFSET 0.000000 0.000000 0.000000
										}
									}
								}
								JOINT RThumb
								{
									OFFSET 0.000000 0.000000 0.000000
									CHANNELS 3 Zrotation Yrotation Xrotation
									End Site
									{
										OFFSET 0.000000 0.000000 0.000000
									}
								}
							}
						}
					}
				}
			}
		}
	}
}
MOTION
Frames: 10
Frame Time: 0.008333
6.218541 18.200752 -2.570971 -174.696190 83.181947 -166.353843 -2.830399 4.324629 4.665332 -6.197321 -8.606258 -27.061936 1.416531 8.381766 26.629705 -1.480132 7.174306 -4.825103 0.037600 -1.252300 -3.443200 -3.322090 -5.990782 4.729446 23.941186 24.747796 -15.686482 -2.136711 -5.945439 23.981436 3.638127 -13.681897 -4.592653 -0.000100 -0.066800 0.183400 4.157925 -0.211930 0.851300 -18.273185 0.959349 20.238106 1.305558 0.015212 -7.061520 -2.854166 7.078732 -15.819223 -2.104359 12.439837 32.755053 2.354800 5.588900 9.352000 -3.769980 -2.582498 -0.704514 -86.685057 -35.348418 47.897967 23.529613 -32.823667 -7.870932 -0.620262 -0.688327 3.160868 31.916776 8.726898 6.012800 -7.125000 0.000000 0.000000 4.931300 41.171500 -0.466900 6.827001 2.910385 0.393783 74.706024 23.976338 61.941179 -142.354594 48.557844 -105.445334 -1.916800 1.953060 -7.162305 -34.812424 5.858478 -2.152600 7.125000 0.000000 0.000000 -4.993200 -26.042200 -2.302300 
6.232937 18.204230 -2.569521 -174.102289 83.169807 -165.467553 -2.863675 4.267685 4.567763 -5.702138 -9.374960 -27.424969 1.252941 8.107028 25.721510 -1.666416 7.817029 -4.793409 0.026500 -1.051400 -2.890200 -3.341863 -5.986598 4.747704 24.039097 24.756649 -15.944816 -2.119978 -5.915811 23.876801 3.681238 -13.819395 -4.527094 -0.000700 0.168600 -0.463300 3.873289 -0.232095 0.878194 -18.386946 0.885952 20.008549 1.535566 0.000827 -7.125651 -2.710587 7.166441 -15.799756 -2.218060 12.551976 32.641108 2.323200 5.638100 9.312200 -3.771205 -2.581471 -0.682822 -86.472009 -35.847968 47.386047 22.945273 -32.160589 -7.501678 -0.639168 -0.670578 3.511075 31.938861 8.659859 5.969600 -7.125000 0.000000 0.000000 4.965400 41.078000 -0.481600 6.831214 2.923673 0.404189 74.853704 23.990331 62.054940 -141.560183 49.096753 -104.997752 -1.876661 1.985510 -6.722668 -34.489588 5.919922 -2.162300 7.125000 0.000000 0.000000 -4.766200 -25.993400 -2.202400 
6.261149 18.212732 -2.583917 -173.242484 83.296828 -164.661971 -2.933312 4.267766 4.516482 -5.191173 -10.591553 -27.207311 1.124755 7.844625 24.959536 -1.964241 8.894768 -5.461671 0.021900 -0.955300 -2.626000 -3.351063 -6.000207 4.763132 24.175547 24.691191 -15.792848 -2.103368 -5.873726 23.759119 3.704559 -13.870599 -4.352222 -0.005500 0.478400 -1.314500 3.735747 -0.202025 1.006136 -18.526567 0.941883 20.023903 1.621520 0.023380 -7.135055 -2.494162 7.253232 -15.747113 -2.399287 12.654826 32.387701 2.254100 5.678700 9.249200 -3.756163 -2.594282 -0.677087 -86.306126 -36.386723 47.040713 22.310422 -31.427226 -7.109334 -0.666776 -0.651745 3.779876 32.187214 8.631883 6.003700 -7.125000 0.000000 0.000000 5.210700 41.053000 -0.508800 6.811924 2.937007 0.418326 75.644707 24.193922 62.057174 -140.270164 49.956138 -104.276212 -1.810339 2.067292 -6.196974 -33.604210 6.418576 -2.380500 7.125000 0.000000 0.000000 -4.107800 -25.492000 -1.944700 
6.297960 18.219399 -2.613965 -172.530345 83.592544 -164.169573 -3.022050 4.298693 4.482703 -4.835092 -11.933816 -26.754640 1.021281 7.602285 24.322815 -2.369725 10.378667 -6.588868 0.022800 -0.974200 -2.677900 -3.346878 -6.020247 4.769699 24.209820 24.633537 -15.389314 -2.083035 -5.823089 23.636451 3.666680 -13.718859 -4.238506 -0.007600 0.562900 -1.546800 3.725184 -0.117865 1.111599 -18.736332 1.108727 20.149996 1.538676 0.079286 -7.040166 -2.322937 7.304761 -15.732362 -2.483463 12.688227 32.123741 2.203000 5.694600 9.200900 -3.721750 -2.614206 -0.669225 -86.053537 -36.999488 46.720149 21.642111 -30.638094 -6.707495 -0.685203 -0.627398 4.145157 32.061126 8.523605 5.895700 -7.125000 0.000000 0.000000 5.111800 40.886700 -0.520100 6.778397 2.946749 0.419892 76.112049 24.296036 62.057341 -139.232667 50.627876 -103.664542 -1.767642 2.119581 -6.237981 -33.448305 7.208733 -2.834800 7.125000 0.000000 0.000000 -3.974800 -24.620900 -1.962000 
6.311293 18.220365 -2.624110 -172.043552 83.583099 -163.599435 -3.058610 4.276481 4.399535 -4.491708 -12.764341 -27.021459 0.937276 7.414504 23.734736 -2.767646 11.743526 -6.790758 0.035000 -1.207600 -3.320100 -3.357889 -6.019735 4.784998 24.258997 24.723361 -15.322820 -2.066043 -5.782467 23.533995 3.682109 -13.767262 -4.319581 -0.005500 0.477700 -1.312500 3.561397 -0.146574 1.313593 -18.927776 1.086505 20.049140 1.628310 0.070274 -7.124864 -2.245881 7.346574 -15.717182 -2.363439 12.663804 31.940173 2.217300 5.705100 9.137800 -3.699364 -2.617472 -0.648304 -85.680913 -37.519573 46.325278 20.991526 -29.854644 -6.325466 -0.695334 -0.604455 4.527418 31.687139 8.365220 5.701500 -7.125000 0.000000 0.000000 4.785000 40.638000 -0.516000 6.780231 2.939479 0.418263 76.257487 24.172457 62.016668 -138.421380 51.164345 -103.135284 -1.754051 2.134502 -6.666675 -34.178378 8.086542 -3.455900 7.125000 0.000000 0.000000 -4.473800 -23.583000 -2.317100 
6.336897 18.224616 -2.645269 -170.189230 83.757980 -161.722636 -3.104969 4.257644 4.343022 -4.064168 -13.477482 -27.168925 0.872229 7.261418 23.247127 -3.135511 13.008960 -7.091708 0.057100 -1.541600 -4.240400 -3.395637 -6.031937 4.807866 24.403745 24.886495 -15.179456 -2.052201 -5.747389 23.476106 3.610779 -13.529960 -4.437347 -0.000200 0.090600 -0.248800 3.566078 -0.141950 1.295119 -19.025807 1.109346 20.082773 1.587048 0.066079 -7.058567 -2.287948 7.419060 -15.816347 -2.285153 12.727660 31.793166 2.252200 5.739000 9.105600 -3.676803 -2.634824 -0.635824 -85.234444 -38.040990 45.705005 20.403819 -29.126067 -5.985531 -0.689479 -0.587033 4.461382 30.877572 8.063435 5.329700 -7.125000 0.000000 0.000000 4.065900 40.181000 -0.484000 6.765565 2.939930 0.420178 76.570648 24.234483 61.925001 -137.372215 51.816839 -102.473710 -1.725854 2.156293 -6.731034 -34.514151 8.467943 -3.731900 7.125000 0.000000 0.000000 -4.715200 -23.141400 -2.490900 
6.362983 18.228964 -2.664399 -168.115921 83.985360 -159.596820 -3.134556 4.214947 4.288226 -3.770572 -13.813649 -27.491328 0.820663 7.154268 22.878558 -3.451388 14.120675 -7.537931 0.074400 -1.759300 -4.841000 -3.440016 -6.047769 4.832032 24.511621 25.200643 -15.045951 -2.042971 -5.723609 23.460499 3.499515 -13.174066 -4.667462 -0.006500 -0.522600 1.436000 3.468123 -0.109648 1.215170 -19.032463 1.139792 20.111002 1.631879 0.075748 -6.975291 -2.247598 7.488402 -15.863116 -2.535110 12.878451 31.643158 2.201800 5.778000 9.084500 -3.676251 -2.647566 -0.629634 -84.759366 -38.530967 45.201258 19.799539 -28.359347 -5.641964 -0.683498 -0.580866 4.228679 29.992716 8.037961 5.123800 -7.125000 0.000000 0.000000 3.282000 40.052900 -0.400800 6.741456 2.953161 0.427634 76.957133 24.366948 61.758770 -136.185650 52.518002 -101.731056 -1.689438 2.178132 -6.641682 -34.570261 8.455733 -3.721800 7.125000 0.000000 0.000000 -4.786200 -23.177100 -2.524700 
6.387717 18.227708 -2.683915 -167.796378 84.320925 -159.230083 -3.151671 4.177729 4.224950 -3.812336 -14.085028 -27.823430 0.775050 7.062206 22.612056 -3.716805 15.107918 -8.314901 0.061700 -1.602900 -4.409500 -3.443065 -6.052199 4.836432 24.370321 25.365315 -14.999293 -2.042695 -5.724472 23.481460 3.409918 -12.881853 -4.724893 -0.015300 -0.798700 2.195000 3.118366 -0.024466 1.257005 -19.165683 1.224469 20.024657 1.830269 0.131187 -6.950692 -2.173283 7.536654 -15.716573 -2.782844 12.971320 31.340983 2.127500 5.798300 8.992200 -3.673084 -2.655976 -0.616293 -84.520485 -39.012802 44.579902 19.021672 -27.350908 -5.211410 -0.696742 -0.558016 4.753161 29.504991 8.052287 5.023100 -7.125000 0.000000 0.000000 2.860100 40.001500 -0.352700 6.722377 2.970456 0.437713 77.343762 24.457531 61.493470 -134.833350 53.300937 -100.844450 -1.657596 2.205861 -7.197258 -35.289101 9.503751 -4.494500 7.125000 0.000000 0.000000 -5.258200 -21.931700 -2.925800 
6.414866 18.221814 -2.715026 -167.601557 84.677533 -159.141956 -3.197105 4.182739 4.175873 -3.815706 -14.800214 -27.800739 0.740181 6.962167 22.395239 -4.004845 16.196679 -9.321506 0.038100 -1.259400 -3.462800 -3.439498 -6.053930 4.832189 24.251154 25.240924 -14.904608 -2.053118 -5.744317 23.553867 3.322832 -12.584518 -4.626095 -0.013500 -0.751300 2.064800 2.989023 0.054548 1.400671 -19.483939 1.361437 19.989150 1.836840 0.187310 -6.919365 -2.138355 7.597435 -15.726253 -2.707704 13.006019 31.183285 2.144800 5.824300 8.951300 -3.634236 -2.672394 -0.605180 -84.032074 -39.388946 44.240494 18.322189 -26.433762 -4.840231 -0.720246 -0.532044 5.092270 29.459082 8.082190 5.021000 -7.125000 0.000000 0.000000 2.838700 40.004900 -0.349900 6.704661 2.972760 0.454133 77.856201 24.593871 61.170403 -133.223143 54.188829 -99.783664 -1.613030 2.252547 -8.213227 -36.063334 11.452826 -5.920200 7.125000 0.000000 0.000000 -5.676600 -19.607700 -3.459400 
6.438827 18.213892 -2.740533 -165.841855 84.955047 -157.322907 -3.224166 4.143184 4.125316 -3.728099 -14.983631 -28.112472 0.719074 6.917004 22.231590 -4.211079 16.936329 -9.640390 0.016000 -0.817400 -2.246400 -3.481359 -6.059446 4.837350 24.327441 25.357997 -14.913300 -2.064627 -5.760482 23.626433 3.271505 -12.411161 -4.606051 -0.012700 -0.728000 2.000500 2.919189 0.084485 1.386077 -19.730605 1.404086 19.906042 1.863589 0.197665 -6.860300 -2.017110 7.714624 -15.842860 -2.754168 13.156876 31.167238 2.148100 5.891300 8.968800 -3.612246 -2.683090 -0.600506 -83.281506 -39.649689 43.810708 17.707325 -25.612030 -4.522088 -0.749368 -0.514264 5.261844 29.630908 8.358811 5.209400 -7.125000 0.000000 0.000000 3.008000 40.319600 -0.347500 6.700144 2.979616 0.480048 78.504571 24.749806 60.956528 -131.525519 55.043666 -98.725972 -1.539681 2.314011 -8.945761 -35.482070 12.492501 -6.473000 7.125000 0.000000 0.000000 -5.234900 -18.493000 -3.318000 
